<?xml version="1.0" standalone="no"?>
<!DOCTYPE svg PUBLIC "-//W3C//DTD SVG 20010904//EN"
 "http://www.w3.org/TR/2001/REC-SVG-20010904/DTD/svg10.dtd">
<svg version="1.0" xmlns="http://www.w3.org/2000/svg"
 width="797.000000pt" height="606.000000pt" viewBox="0 0 797.000000 606.000000"
 preserveAspectRatio="xMidYMid meet">

<g transform="translate(0.000000,606.000000) scale(0.100000,-0.100000)"
fill="#000000" stroke="none">
<path d="M3322 4830 c-29 -10 -101 -23 -160 -29 -59 -6 -147 -19 -197 -30
-153 -33 -388 -43 -795 -31 -299 8 -378 13 -440 29 -70 17 -91 19 -78 6 13
-14 130 -36 231 -44 151 -13 668 -17 842 -7 77 5 190 19 250 31 61 13 148 26
195 30 47 4 112 16 145 26 122 38 213 22 388 -69 115 -60 235 -159 255 -209 6
-15 16 -83 21 -150 15 -163 15 -3093 1 -3093 -5 0 -47 27 -92 61 -114 84 -139
96 -311 136 -235 55 -243 57 -261 72 -12 10 -19 11 -30 2 -11 -9 -52 -9 -178
2 -120 10 -231 12 -424 7 -143 -4 -271 -6 -285 -4 -13 1 -36 3 -51 3 -23 1
-28 6 -35 44 -12 58 -38 60 -78 4 -26 -35 -38 -43 -75 -48 -25 -4 -65 -2 -90
3 -25 5 -84 15 -132 21 -48 7 -93 18 -100 25 -18 18 -55 14 -87 -9 -43 -32
-79 -17 -110 47 -24 49 -25 51 -25 369 l-1 320 28 40 c15 22 27 48 27 59 0 11
5 34 12 53 11 29 9 35 -9 55 -12 13 -29 43 -39 67 -15 39 -16 70 -11 287 l6
244 71 95 c39 52 75 97 80 100 21 13 9 35 -22 43 -31 8 -33 11 -30 51 3 44
-11 81 -31 81 -7 1 -22 9 -33 19 -21 17 -22 21 -12 147 12 160 4 969 -11 1043
-6 30 -15 59 -21 65 -7 7 -8 1 -4 -22 l7 -33 -62 4 -63 3 6 -32 7 -32 -153 4
c-84 2 -193 9 -241 15 -59 8 -91 9 -98 2 -10 -10 10 -13 216 -32 l70 -6 23
-90 c34 -127 40 -350 18 -590 -10 -99 -22 -200 -27 -224 -11 -48 -5 -76 21
-106 27 -31 60 -101 60 -130 0 -14 -7 -42 -15 -61 -14 -34 -13 -38 10 -82 l24
-46 -20 -30 c-11 -17 -35 -60 -53 -96 l-33 -65 -8 -330 c-9 -376 -8 -988 1
-1085 11 -114 64 -188 144 -205 19 -4 60 -23 90 -43 64 -42 149 -78 217 -92
157 -33 690 -70 1009 -70 159 0 172 1 189 20 11 13 21 16 25 10 6 -9 28 -11
120 -9 101 2 545 -29 601 -42 l46 -10 6 -62 c3 -34 4 -63 3 -65 -2 -1 -14 2
-28 7 -13 5 -71 19 -128 31 -104 22 -115 22 -1305 25 -660 2 -1221 4 -1247 4
l-48 1 0 1745 c0 1157 -3 1745 -10 1745 -7 0 -10 -592 -10 -1755 l0 -1755 68
0 c37 0 607 -2 1267 -4 1174 -4 1202 -5 1295 -25 52 -12 102 -24 110 -27 25
-11 250 -13 250 -3 0 5 -21 9 -47 9 -27 0 -72 3 -100 6 l-53 7 0 53 c0 40 4
54 14 54 24 0 160 -52 171 -65 6 -7 20 -15 33 -19 17 -6 22 -3 22 11 0 18 80
55 150 69 l33 7 -5 -52 c-3 -28 -7 -54 -10 -56 -3 -3 -46 -8 -96 -11 -51 -4
-92 -11 -92 -15 0 -10 232 -5 248 5 6 3 55 16 109 27 96 21 124 21 1346 25
686 1 1251 6 1256 9 5 3 12 -1 14 -7 3 -7 6 768 6 1723 1 1335 4 1738 13 1747
8 8 9 12 1 12 -6 0 -14 8 -16 18 -4 14 -5 14 -6 1 -1 -11 -15 -18 -47 -23 -73
-10 -172 -7 -179 5 -5 7 -51 8 -147 3 l-140 -7 7 32 c4 20 3 31 -4 31 -6 0
-11 -4 -11 -8 0 -5 -24 -8 -54 -8 l-54 1 4 30 c5 25 4 27 -6 12 -6 -10 -16
-64 -22 -120 -5 -56 -11 -102 -11 -102 -1 -1 -47 -10 -102 -20 -89 -18 -100
-22 -103 -43 -4 -30 16 -36 61 -17 20 8 48 15 63 15 25 0 26 -2 21 -37 -3 -21
-9 -48 -13 -60 -5 -18 -1 -25 20 -33 23 -8 26 -15 26 -55 0 -26 5 -56 11 -67
7 -14 11 -84 10 -197 0 -97 4 -219 9 -271 5 -52 15 -286 21 -519 11 -382 10
-424 -4 -432 -21 -12 -31 -63 -18 -88 10 -17 6 -24 -24 -47 -19 -14 -35 -35
-35 -46 0 -20 9 -21 53 -3 22 9 22 -13 1 -84 -15 -52 -15 -54 10 -105 24 -48
24 -55 15 -125 -9 -66 -9 -75 9 -95 17 -20 18 -38 16 -263 -3 -305 -15 -351
-97 -371 -94 -24 -491 -33 -982 -21 -250 5 -317 3 -497 -16 -61 -7 -68 -5 -75
11 -4 11 -22 39 -41 64 -37 48 -47 68 -56 113 -4 15 -11 27 -17 27 -13 0 -2
-65 18 -104 14 -26 13 -35 -3 -82 -12 -36 -24 -54 -38 -57 -332 -75 -371 -89
-498 -182 l-48 -35 0 1492 c0 1019 -4 1528 -11 1606 l-11 113 26 37 c42 60
134 129 250 189 170 87 254 101 377 64 35 -11 102 -22 149 -26 47 -4 132 -17
190 -30 59 -13 167 -26 245 -31 177 -10 693 -6 848 7 114 9 237 35 237 50 0 6
-101 -13 -139 -27 -8 -2 -179 -9 -380 -15 -407 -10 -640 -1 -801 33 -52 11
-138 24 -190 28 -52 5 -130 19 -173 32 -70 20 -85 21 -154 11 -154 -22 -447
-200 -486 -295 -4 -9 -13 -4 -28 15 -64 83 -135 135 -285 210 -156 79 -247 94
-352 57z m-1688 -193 c3 -45 6 -135 6 -199 0 -116 0 -118 -22 -118 -13 0 -33
3 -45 6 -22 6 -23 10 -23 143 0 86 -5 157 -14 191 -8 30 -11 57 -6 60 5 3 28
4 53 2 l44 -4 7 -81z m4784 74 c11 -6 11 -16 3 -47 -16 -56 -13 -357 4 -504
23 -200 23 -210 4 -210 -9 0 -21 12 -28 26 -17 37 -32 26 -48 -36 -15 -58 -15
-62 11 -177 13 -57 16 -126 15 -315 -1 -379 -2 -360 29 -385 24 -19 27 -28 27
-85 0 -61 1 -63 26 -66 26 -3 27 -6 40 -105 22 -159 16 -583 -10 -777 -11 -85
-25 -207 -30 -271 -11 -131 -21 -160 -59 -176 -66 -30 -184 -62 -243 -68 -35
-3 -80 -8 -100 -10 -34 -5 -37 -3 -41 25 l-5 30 86 1 c99 0 272 21 271 32 0 4
6 20 14 35 25 49 27 104 12 297 -23 285 -24 288 -47 305 -18 15 -20 23 -13 93
6 66 4 83 -15 127 -18 41 -20 57 -12 83 5 18 13 51 16 74 5 35 4 44 -10 49 -9
4 -21 2 -28 -5 -14 -14 -27 -14 -27 -1 0 5 14 17 31 25 30 16 30 18 24 65 -6
42 -4 50 16 63 22 16 22 17 15 199 -4 101 -9 278 -12 393 -2 116 -9 265 -15
333 -5 67 -9 209 -8 314 1 134 -2 193 -10 196 -6 2 -11 18 -11 37 0 59 -12 97
-32 103 -16 4 -18 10 -12 31 4 14 8 42 8 61 1 34 0 35 -34 33 -19 -1 -52 -7
-73 -14 -20 -7 -40 -9 -43 -6 -10 9 42 27 111 38 95 16 105 22 105 67 0 22 3
60 6 86 7 45 7 46 43 46 20 0 42 -4 49 -9z m455 -41 l87 1 0 -1720 0 -1721
-47 -1 c-27 0 -590 -2 -1253 -4 l-1205 -4 -110 -24 c-60 -13 -118 -27 -127
-31 -16 -7 -18 -1 -18 57 l0 65 48 11 c91 21 356 33 591 28 232 -6 233 -6 256
17 12 12 28 39 36 59 18 51 35 47 31 -8 -4 -41 -2 -45 23 -51 20 -5 32 -1 51
17 l25 23 22 -27 22 -27 240 4 c132 3 301 12 377 20 75 9 147 15 160 14 75 -5
277 68 350 127 14 12 44 25 66 29 78 12 140 92 151 196 7 63 8 863 2 1200 -2
124 -1 335 4 470 6 210 5 257 -9 325 -20 96 -43 316 -51 490 -4 72 -11 143
-17 158 -10 26 -14 28 -46 22 -29 -5 -34 -4 -28 10 3 9 -1 26 -8 38 -25 38
-30 93 -12 119 12 17 14 35 10 69 -8 59 -8 60 161 52 72 -3 169 -4 218 -3z
m-5349 -24 c3 -12 6 -89 6 -173 0 -93 4 -154 10 -158 6 -4 31 -7 55 -8 35 -2
45 -6 45 -19 0 -12 -10 -18 -32 -20 -32 -3 -33 -4 -36 -58 -3 -43 1 -57 14
-67 17 -12 16 -15 -9 -41 -25 -26 -26 -32 -17 -57 10 -26 8 -31 -12 -47 -13
-10 -26 -18 -31 -18 -20 0 -29 -73 -33 -265 -7 -371 -25 -736 -45 -898 -27
-220 -22 -591 11 -807 5 -36 17 -134 25 -219 19 -198 22 -203 138 -247 118
-45 254 -61 817 -94 96 -5 324 -9 505 -8 279 1 341 -1 403 -15 82 -19 174 -22
202 -7 13 7 19 6 24 -5 3 -8 14 -15 25 -15 11 0 21 -5 23 -12 2 -6 40 -20 83
-30 68 -16 174 -63 163 -73 -2 -2 -49 7 -105 20 -70 16 -174 28 -330 38 -274
17 -306 18 -383 16 -24 0 -46 4 -48 10 -6 17 -22 13 -40 -9 -26 -31 -131 -34
-492 -16 -355 18 -605 42 -635 62 -11 7 -56 27 -100 44 -44 18 -82 35 -85 39
-3 4 -27 16 -55 26 -27 11 -68 30 -89 44 -21 14 -54 34 -72 43 -42 23 -58 46
-86 133 -21 68 -22 83 -23 475 0 223 4 522 9 665 8 255 9 261 37 323 15 34 37
75 48 91 27 37 27 71 0 105 -20 26 -21 29 -5 69 9 24 16 53 16 65 0 25 -38
102 -72 144 -21 27 -21 32 -10 100 49 298 53 624 9 795 -27 108 -33 101 90
100 74 -1 82 -3 87 -21z m4951 -24 c4 -25 1 -47 -10 -70 -18 -35 -13 -81 11
-116 8 -11 11 -31 7 -49 l-6 -30 40 6 c39 7 42 6 52 -25 6 -17 11 -72 11 -122
0 -118 25 -379 46 -481 20 -92 23 -358 8 -595 -5 -80 -6 -203 -3 -275 4 -71 7
-338 8 -592 l1 -462 -26 -81 c-18 -58 -34 -89 -56 -108 -16 -15 -33 -27 -36
-27 -4 -1 -29 -16 -57 -33 -27 -18 -61 -36 -75 -39 -14 -4 -38 -15 -55 -25
-16 -10 -37 -21 -45 -24 -193 -82 -195 -83 -330 -99 -74 -9 -253 -19 -397 -22
l-262 -6 -10 26 c-12 32 -31 34 -56 7 -10 -11 -26 -20 -37 -20 -14 0 -18 8
-18 40 l0 40 114 0 c107 0 114 1 129 23 14 21 16 21 34 5 17 -16 35 -16 208
-8 105 5 204 14 220 19 21 7 -8 8 -95 5 -69 -3 -130 -7 -137 -9 -7 -2 -15 0
-18 5 -3 5 -19 5 -38 -1 -51 -15 -118 -11 -139 8 -17 15 -20 15 -42 -6 -23
-22 -26 -22 -322 -20 -183 1 -338 -3 -399 -10 -55 -7 -134 -16 -175 -20 -111
-12 -328 -69 -385 -102 -28 -15 -60 -39 -73 -53 -26 -31 -52 -34 -52 -7 0 12
25 37 68 68 108 78 132 90 227 113 209 50 261 63 276 71 9 4 22 29 29 54 7 25
14 45 16 45 10 0 44 -42 44 -54 0 -31 24 -35 125 -24 98 12 247 13 852 9 l303
-2 -15 -30 c-10 -18 -11 -29 -5 -29 6 0 18 16 26 36 18 44 38 40 42 -10 3 -33
6 -37 25 -33 12 3 60 9 107 12 112 9 295 68 317 102 9 13 20 63 25 111 5 48
18 161 29 252 32 273 45 560 31 713 -7 73 -17 160 -23 194 -10 56 -13 62 -37
65 -29 3 -30 8 -18 73 6 31 3 39 -25 64 l-31 29 -2 319 c-2 275 -5 326 -20
378 -21 69 -22 86 -5 137 12 36 13 37 26 18 17 -24 36 -26 53 -5 11 13 10 44
-4 164 -16 146 -23 531 -9 544 16 17 32 4 38 -31z m-4829 -409 c7 -48 -1 -385
-14 -567 -6 -92 -5 -101 13 -118 11 -10 30 -21 44 -25 22 -5 23 -9 18 -54 -7
-53 8 -79 44 -79 20 0 26 -15 9 -25 -6 -3 -35 -40 -65 -81 -31 -41 -60 -72
-64 -69 -14 8 -20 -65 -27 -331 -6 -227 -5 -251 10 -257 9 -4 16 -13 16 -22 0
-8 10 -25 21 -36 19 -19 21 -26 10 -54 -6 -17 -11 -40 -11 -51 0 -11 -13 -38
-29 -59 -15 -21 -26 -46 -24 -56 3 -9 -2 -73 -10 -141 -9 -68 -18 -170 -22
-228 -3 -58 -10 -128 -16 -155 -11 -59 2 -145 28 -184 10 -14 17 -29 16 -32
-1 -4 27 -9 63 -13 56 -6 69 -4 94 14 30 22 70 26 86 10 22 -22 309 -64 359
-53 11 2 33 24 49 49 15 24 31 44 36 44 4 0 10 -13 13 -29 13 -63 2 -62 401
-59 221 1 404 -2 471 -9 78 -8 113 -9 122 -1 10 8 18 6 31 -6 10 -9 28 -16 40
-16 11 0 31 -4 45 -9 13 -5 86 -23 163 -40 166 -38 212 -58 326 -144 48 -35
89 -62 92 -59 3 3 6 -5 6 -17 0 -18 -4 -22 -17 -16 -10 4 -27 10 -38 13 -11 3
-39 23 -63 44 -52 48 -109 74 -179 84 -31 4 -59 14 -69 25 -9 11 -23 19 -30
19 -7 0 -17 8 -22 17 -9 15 -12 15 -33 2 -25 -16 -50 -15 -274 12 -62 7 -214
11 -400 10 -363 -3 -1008 34 -1143 65 -35 8 -158 51 -181 64 -25 13 -38 71
-52 225 -6 72 -15 155 -20 185 -5 30 -16 163 -25 295 -15 242 -11 374 16 542
12 69 38 625 43 906 l3 198 43 37 c41 36 42 38 30 66 -12 26 -11 30 14 52 30
26 34 42 12 50 -19 8 -21 100 -2 107 28 12 36 5 43 -40z m3474 -2785 c0 -31
-31 -76 -58 -83 -13 -3 -110 -3 -215 1 -276 9 -564 -13 -706 -55 -48 -15 -50
-7 -4 22 44 28 304 97 367 97 23 0 61 5 86 11 68 16 208 26 378 27 146 0 152
-1 152 -20z"/>
</g>
</svg>
